# xmcd
#
# Track frame offsets: 
#        150
#        21295
#        38754
#        62807
#        84015
#        104883
#        129105
#        146115
#        173516
#        205436
#        227352
#        249276
#        281815
#        293058
#
# Disc length: 4217 seconds
#
# Revision: 2
# Processed by: cddbd v1.5.2PL0 Copyright (c) Steve Scherf et al.
# Submitted via: ExactAudioCopyFreeDBPlugin 1.0
#
DISCID=c010770e
DTITLE=Spin Doctors - Songs From The Road
DYEAR=2015
DGENRE=Pop
TTITLE0=What Time Is It?
TTITLE1=Traction Blues
TTITLE2=Off My Line
TTITLE3=Sweetest Portion
TTITLE4=Little Miss Can't Be Wrong
TTITLE5=Some Other Man Instead
TTITLE6=If The River Was Whiskey
TTITLE7=Jimmy Olsen's Blues
TTITLE8=About A Train
TTITLE9=Two Princes
TTITLE10=Lady Kerosene
TTITLE11=Scotch and Water Blues
TTITLE12=What My Love?
TTITLE13=Yo Mamas a Pajama
EXTD=
EXTT0=
EXTT1=
EXTT2=
EXTT3=
EXTT4=
EXTT5=
EXTT6=
EXTT7=
EXTT8=
EXTT9=
EXTT10=
EXTT11=
EXTT12=
EXTT13=
PLAYORDER=
